<svg viewBox="0 0 105 43" fill="none" xmlns="http://www.w3.org/2000/svg">
<path d="M10.8594 42.5859C7.6875 42.5859 5.09375 41.8047 3.07812 40.2422C1.07812 38.6641 0.078125 36.25 0.078125 33V26.8594H8.65625V30.3984C8.65625 31.1328 8.69531 31.8438 8.77344 32.5312C8.86719 33.2188 9.07031 33.7812 9.38281 34.2188C9.69531 34.6562 10.1875 34.875 10.8594 34.875C11.75 34.875 12.3359 34.5781 12.6172 33.9844C12.8984 33.375 13.0391 32.6016 13.0391 31.6641V23.5547C13.0391 22.8828 12.9922 22.2188 12.8984 21.5625C12.8203 20.9062 12.6328 20.3594 12.3359 19.9219C12.0391 19.4844 11.5625 19.2656 10.9062 19.2656C9.34375 19.2656 8.5625 20.3984 8.5625 22.6641H0.992188V0.726562H20.6562V8.46094H8.82031V14.2734C9.22656 13.7734 9.77344 13.3359 10.4609 12.9609C11.1641 12.5703 11.9844 12.375 12.9219 12.375C14.7969 12.375 16.3203 12.7344 17.4922 13.4531C18.6797 14.1719 19.5859 15.1719 20.2109 16.4531C20.8516 17.7344 21.2891 19.2188 21.5234 20.9062C21.7734 22.5938 21.8984 24.4062 21.8984 26.3438C21.8984 28.8281 21.7656 31.0703 21.5 33.0703C21.25 35.0547 20.7422 36.7578 19.9766 38.1797C19.2266 39.6016 18.1172 40.6953 16.6484 41.4609C15.1953 42.2109 13.2656 42.5859 10.8594 42.5859ZM34.5781 42.5859C31.4062 42.5859 28.8125 41.8047 26.7969 40.2422C24.7969 38.6641 23.7969 36.25 23.7969 33V26.8594H32.375V30.3984C32.375 31.1328 32.4141 31.8438 32.4922 32.5312C32.5859 33.2188 32.7891 33.7812 33.1016 34.2188C33.4141 34.6562 33.9062 34.875 34.5781 34.875C35.4688 34.875 36.0547 34.5781 36.3359 33.9844C36.6172 33.375 36.7578 32.6016 36.7578 31.6641V23.5547C36.7578 22.8828 36.7109 22.2188 36.6172 21.5625C36.5391 20.9062 36.3516 20.3594 36.0547 19.9219C35.7578 19.4844 35.2812 19.2656 34.625 19.2656C33.0625 19.2656 32.2812 20.3984 32.2812 22.6641H24.7109V0.726562H44.375V8.46094H32.5391V14.2734C32.9453 13.7734 33.4922 13.3359 34.1797 12.9609C34.8828 12.5703 35.7031 12.375 36.6406 12.375C38.5156 12.375 40.0391 12.7344 41.2109 13.4531C42.3984 14.1719 43.3047 15.1719 43.9297 16.4531C44.5703 17.7344 45.0078 19.2188 45.2422 20.9062C45.4922 22.5938 45.6172 24.4062 45.6172 26.3438C45.6172 28.8281 45.4844 31.0703 45.2188 33.0703C44.9688 35.0547 44.4609 36.7578 43.6953 38.1797C42.9453 39.6016 41.8359 40.6953 40.3672 41.4609C38.9141 42.2109 36.9844 42.5859 34.5781 42.5859ZM48.125 42V0.75H56.6562V42H48.125ZM74.0703 42.375C72.6953 42.375 71.5781 42.0391 70.7188 41.3672C69.8594 40.6797 69.1719 39.6406 68.6562 38.25V42H60.125V0.75H68.6562V10.5938C69.1719 9.29688 69.8828 8.28906 70.7891 7.57031C71.7109 6.83594 73.0234 6.46875 74.7266 6.46875C77.0234 6.46875 78.6406 7.30469 79.5781 8.97656C80.5312 10.6484 81.0078 12.8359 81.0078 15.5391V32.8359C81.0078 34.6328 80.7578 36.2578 80.2578 37.7109C79.7734 39.1484 79.0156 40.2891 77.9844 41.1328C76.9688 41.9609 75.6641 42.375 74.0703 42.375ZM70.6016 35.8359C71.4922 35.8359 72.0312 35.3984 72.2188 34.5234C72.4062 33.6484 72.5 32.5703 72.5 31.2891V17.5547C72.5 16.2578 72.4062 15.1797 72.2188 14.3203C72.0312 13.4453 71.5 13.0078 70.625 13.0078C69.7188 13.0078 69.1641 13.4531 68.9609 14.3438C68.7578 15.2188 68.6562 16.2891 68.6562 17.5547V31.2891C68.6562 32.5547 68.7578 33.6328 68.9609 34.5234C69.1641 35.3984 69.7109 35.8359 70.6016 35.8359ZM93.7578 42.375C86.8203 42.375 83.3516 38.8594 83.3516 31.8281V29.0391H91.7891V33.1641C91.7891 33.9609 91.9453 34.5859 92.2578 35.0391C92.5703 35.4922 93.0703 35.7188 93.7578 35.7188C94.9766 35.7188 95.5859 34.8047 95.5859 32.9766C95.5859 31.4453 95.2656 30.3047 94.625 29.5547C93.9844 28.7891 93.2031 28.0547 92.2812 27.3516L87.8047 23.9062C86.3984 22.8125 85.3281 21.6562 84.5938 20.4375C83.8594 19.2188 83.4922 17.5234 83.4922 15.3516C83.4922 13.3359 83.9688 11.6719 84.9219 10.3594C85.8906 9.04688 87.1641 8.07031 88.7422 7.42969C90.3359 6.78906 92.0547 6.46875 93.8984 6.46875C100.711 6.46875 104.117 9.86719 104.117 16.6641V17.3203H95.4453V15.9844C95.4453 15.2812 95.3203 14.6016 95.0703 13.9453C94.8359 13.2891 94.3672 12.9609 93.6641 12.9609C92.4766 12.9609 91.8828 13.5859 91.8828 14.8359C91.8828 16.1016 92.3828 17.0938 93.3828 17.8125L98.5859 21.6094C100.211 22.7812 101.57 24.1719 102.664 25.7812C103.773 27.3906 104.328 29.5312 104.328 32.2031C104.328 35.5156 103.383 38.0391 101.492 39.7734C99.6172 41.5078 97.0391 42.375 93.7578 42.375Z" fill="inherit"/>
</svg>
