<svg width="122" height="85" viewBox="0 0 122 85" fill="none" xmlns="http://www.w3.org/2000/svg">
<path d="M0.6875 42V0.75H9.21875V42H0.6875Z" fill="inherit"/>
<path d="M22.4375 42.375C19.9375 42.375 17.9453 41.9062 16.4609 40.9688C14.9766 40.0312 13.9141 38.6797 13.2734 36.9141C12.6328 35.1484 12.3125 33.0234 12.3125 30.5391V16.4062C12.3125 13.1406 13.25 10.6719 15.125 9C17 7.3125 19.5781 6.46875 22.8594 6.46875C29.6094 6.46875 32.9844 9.78125 32.9844 16.4062V18.9609C32.9844 22.0547 32.9531 24.1328 32.8906 25.1953H20.7031V31.9922C20.7031 32.6172 20.7422 33.2344 20.8203 33.8438C20.8984 34.4375 21.0703 34.9297 21.3359 35.3203C21.6172 35.7109 22.0625 35.9062 22.6719 35.9062C23.5469 35.9062 24.0938 35.5312 24.3125 34.7812C24.5312 34.0156 24.6406 33.0234 24.6406 31.8047V28.4297H32.9844V30.4219C32.9844 33.0469 32.6562 35.25 32 37.0312C31.3594 38.7969 30.2656 40.1328 28.7188 41.0391C27.1875 41.9297 25.0938 42.375 22.4375 42.375ZM20.6562 21.0234H24.6406V16.2891C24.6406 15.0234 24.4844 14.1172 24.1719 13.5703C23.8594 13.0078 23.3906 12.7266 22.7656 12.7266C22.0938 12.7266 21.5703 12.9922 21.1953 13.5234C20.8359 14.0547 20.6562 14.9766 20.6562 16.2891V21.0234Z" fill="inherit"/>
<path d="M42.4297 42.375C40.4766 42.375 38.9844 41.9219 37.9531 41.0156C36.9375 40.1094 36.2422 38.8672 35.8672 37.2891C35.4922 35.7109 35.3047 33.9219 35.3047 31.9219C35.3047 29.7812 35.5156 28.0312 35.9375 26.6719C36.3594 25.2969 37.0781 24.1719 38.0938 23.2969C39.125 22.4219 40.5391 21.6797 42.3359 21.0703L47.5391 19.2891V15.6797C47.5391 13.7891 46.9219 12.8438 45.6875 12.8438C44.5625 12.8438 44 13.6094 44 15.1406V17.25H35.8438C35.8281 17.125 35.8203 16.9688 35.8203 16.7812C35.8203 16.5781 35.8203 16.3516 35.8203 16.1016C35.8203 12.6016 36.6406 10.125 38.2812 8.67188C39.9375 7.20312 42.5547 6.46875 46.1328 6.46875C48.0078 6.46875 49.6875 6.80469 51.1719 7.47656C52.6562 8.13281 53.8281 9.10938 54.6875 10.4062C55.5625 11.7031 56 13.3047 56 15.2109V42H47.6562V37.8281C47.25 39.2969 46.5781 40.4219 45.6406 41.2031C44.7031 41.9844 43.6328 42.375 42.4297 42.375ZM45.7344 35.8594C46.4219 35.8594 46.8906 35.5703 47.1406 34.9922C47.3906 34.4141 47.5156 33.7891 47.5156 33.1172V23.3203C46.3594 23.7891 45.4609 24.3828 44.8203 25.1016C44.1797 25.8047 43.8594 26.8438 43.8594 28.2188V32.7422C43.8594 34.8203 44.4844 35.8594 45.7344 35.8594Z" fill="inherit"/>
<path d="M66.1484 42.375C64.5234 42.375 63.2344 42.0781 62.2812 41.4844C61.3281 40.8906 60.6172 40.0703 60.1484 39.0234C59.6797 37.9766 59.3672 36.75 59.2109 35.3438C59.0703 33.9375 59 32.4297 59 30.8203V15.5391C59 12.8359 59.4766 10.6484 60.4297 8.97656C61.3984 7.30469 63.0312 6.46875 65.3281 6.46875C67.0312 6.46875 68.3359 6.83594 69.2422 7.57031C70.1641 8.28906 70.875 9.29688 71.375 10.5938V0.75H79.9062V42H71.375V38.2734C70.9062 39.5391 70.2812 40.5391 69.5 41.2734C68.7344 42.0078 67.6172 42.375 66.1484 42.375ZM69.3594 35.8125C70.1562 35.8125 70.6875 35.4922 70.9531 34.8516C71.2344 34.2109 71.375 33.0625 71.375 31.4062V16.6172C71.375 15.7891 71.25 14.9766 71 14.1797C70.7656 13.3672 70.2344 12.9609 69.4062 12.9609C68.5 12.9609 67.9297 13.3438 67.6953 14.1094C67.4609 14.875 67.3438 15.7109 67.3438 16.6172V31.4062C67.3438 34.3438 68.0156 35.8125 69.3594 35.8125Z" fill="inherit"/>
<path d="M92.9844 42.375C90.4844 42.375 88.4922 41.9062 87.0078 40.9688C85.5234 40.0312 84.4609 38.6797 83.8203 36.9141C83.1797 35.1484 82.8594 33.0234 82.8594 30.5391V16.4062C82.8594 13.1406 83.7969 10.6719 85.6719 9C87.5469 7.3125 90.125 6.46875 93.4062 6.46875C100.156 6.46875 103.531 9.78125 103.531 16.4062V18.9609C103.531 22.0547 103.5 24.1328 103.438 25.1953H91.25V31.9922C91.25 32.6172 91.2891 33.2344 91.3672 33.8438C91.4453 34.4375 91.6172 34.9297 91.8828 35.3203C92.1641 35.7109 92.6094 35.9062 93.2188 35.9062C94.0938 35.9062 94.6406 35.5312 94.8594 34.7812C95.0781 34.0156 95.1875 33.0234 95.1875 31.8047V28.4297H103.531V30.4219C103.531 33.0469 103.203 35.25 102.547 37.0312C101.906 38.7969 100.812 40.1328 99.2656 41.0391C97.7344 41.9297 95.6406 42.375 92.9844 42.375ZM91.2031 21.0234H95.1875V16.2891C95.1875 15.0234 95.0312 14.1172 94.7188 13.5703C94.4062 13.0078 93.9375 12.7266 93.3125 12.7266C92.6406 12.7266 92.1172 12.9922 91.7422 13.5234C91.3828 14.0547 91.2031 14.9766 91.2031 16.2891V21.0234Z" fill="inherit"/>
<path d="M106.578 42V6.84375H115.109V10.7578C115.516 9.39844 116.234 8.33594 117.266 7.57031C118.297 6.80469 119.594 6.42188 121.156 6.42188V13.4297C120.469 13.4297 119.648 13.5078 118.695 13.6641C117.742 13.8047 116.906 14.0078 116.188 14.2734C115.469 14.5234 115.109 14.8047 115.109 15.1172V42H106.578Z" fill="inherit"/>
<path d="M14.7266 84.375C13.3516 84.375 12.2344 84.0391 11.375 83.3672C10.5156 82.6797 9.82812 81.6406 9.3125 80.25V84H0.78125V42.75H9.3125V52.5938C9.82812 51.2969 10.5391 50.2891 11.4453 49.5703C12.3672 48.8359 13.6797 48.4688 15.3828 48.4688C17.6797 48.4688 19.2969 49.3047 20.2344 50.9766C21.1875 52.6484 21.6641 54.8359 21.6641 57.5391V74.8359C21.6641 76.6328 21.4141 78.2578 20.9141 79.7109C20.4297 81.1484 19.6719 82.2891 18.6406 83.1328C17.625 83.9609 16.3203 84.375 14.7266 84.375ZM11.2578 77.8359C12.1484 77.8359 12.6875 77.3984 12.875 76.5234C13.0625 75.6484 13.1562 74.5703 13.1562 73.2891V59.5547C13.1562 58.2578 13.0625 57.1797 12.875 56.3203C12.6875 55.4453 12.1562 55.0078 11.2812 55.0078C10.375 55.0078 9.82031 55.4531 9.61719 56.3438C9.41406 57.2188 9.3125 58.2891 9.3125 59.5547V73.2891C9.3125 74.5547 9.41406 75.6328 9.61719 76.5234C9.82031 77.3984 10.3672 77.8359 11.2578 77.8359Z" fill="inherit"/>
<path d="M36.488 84.375C29.488 84.375 25.988 80.7422 25.988 73.4766V59.3672C25.988 56.0547 26.9177 53.4141 28.7771 51.4453C30.6364 49.4609 33.2067 48.4688 36.488 48.4688C39.7849 48.4688 42.363 49.4609 44.2224 51.4453C46.0817 53.4141 47.0114 56.0547 47.0114 59.3672V73.4766C47.0114 80.7422 43.5036 84.375 36.488 84.375ZM36.488 77.9062C37.1911 77.9062 37.6911 77.6562 37.988 77.1562C38.3005 76.6406 38.4567 75.9922 38.4567 75.2109V58.0312C38.4567 55.9844 37.8005 54.9609 36.488 54.9609C35.1755 54.9609 34.5192 55.9844 34.5192 58.0312V75.2109C34.5192 75.9922 34.6677 76.6406 34.9646 77.1562C35.2771 77.6562 35.7849 77.9062 36.488 77.9062Z" fill="inherit"/>
<path d="M58.0151 84.375C56.0619 84.375 54.5697 83.9219 53.5385 83.0156C52.5229 82.1094 51.8276 80.8672 51.4526 79.2891C51.0776 77.7109 50.8901 75.9219 50.8901 73.9219C50.8901 71.7812 51.101 70.0312 51.5229 68.6719C51.9447 67.2969 52.6635 66.1719 53.6791 65.2969C54.7104 64.4219 56.1244 63.6797 57.9213 63.0703L63.1244 61.2891V57.6797C63.1244 55.7891 62.5072 54.8438 61.2729 54.8438C60.1479 54.8438 59.5854 55.6094 59.5854 57.1406V59.25H51.4291C51.4135 59.125 51.4057 58.9688 51.4057 58.7812C51.4057 58.5781 51.4057 58.3516 51.4057 58.1016C51.4057 54.6016 52.226 52.125 53.8666 50.6719C55.5229 49.2031 58.1401 48.4688 61.7182 48.4688C63.5932 48.4688 65.2729 48.8047 66.7572 49.4766C68.2416 50.1328 69.4135 51.1094 70.2729 52.4062C71.1479 53.7031 71.5854 55.3047 71.5854 57.2109V84H63.2416V79.8281C62.8354 81.2969 62.1635 82.4219 61.226 83.2031C60.2885 83.9844 59.2182 84.375 58.0151 84.375ZM61.3197 77.8594C62.0072 77.8594 62.476 77.5703 62.726 76.9922C62.976 76.4141 63.101 75.7891 63.101 75.1172V65.3203C61.9447 65.7891 61.0463 66.3828 60.4057 67.1016C59.7651 67.8047 59.4447 68.8438 59.4447 70.2188V74.7422C59.4447 76.8203 60.0697 77.8594 61.3197 77.8594Z" fill="inherit"/>
<path d="M76.3077 84V48.8438H84.839V52.7578C85.2452 51.3984 85.964 50.3359 86.9952 49.5703C88.0265 48.8047 89.3234 48.4219 90.8859 48.4219V55.4297C90.1984 55.4297 89.3781 55.5078 88.4249 55.6641C87.4718 55.8047 86.6359 56.0078 85.9171 56.2734C85.1984 56.5234 84.839 56.8047 84.839 57.1172V84H76.3077Z" fill="inherit"/>
<path d="M101.35 84.375C99.7254 84.375 98.4364 84.0781 97.4832 83.4844C96.5301 82.8906 95.8192 82.0703 95.3504 81.0234C94.8817 79.9766 94.5692 78.75 94.4129 77.3438C94.2723 75.9375 94.202 74.4297 94.202 72.8203V57.5391C94.202 54.8359 94.6786 52.6484 95.6317 50.9766C96.6004 49.3047 98.2332 48.4688 100.53 48.4688C102.233 48.4688 103.538 48.8359 104.444 49.5703C105.366 50.2891 106.077 51.2969 106.577 52.5938V42.75H115.108V84H106.577V80.2734C106.108 81.5391 105.483 82.5391 104.702 83.2734C103.936 84.0078 102.819 84.375 101.35 84.375ZM104.561 77.8125C105.358 77.8125 105.889 77.4922 106.155 76.8516C106.436 76.2109 106.577 75.0625 106.577 73.4062V58.6172C106.577 57.7891 106.452 56.9766 106.202 56.1797C105.968 55.3672 105.436 54.9609 104.608 54.9609C103.702 54.9609 103.132 55.3438 102.897 56.1094C102.663 56.875 102.546 57.7109 102.546 58.6172V73.4062C102.546 76.3438 103.218 77.8125 104.561 77.8125Z" fill="inherit"/>
</svg>
