<svg width="280" height="280" viewBox="0 0 280 280" fill="none" xmlns="http://www.w3.org/2000/svg">
    <path
        d="M95.9785 217.173C84.2161 217.173 74.5977 214.276 67.123 208.481C59.7064 202.629 55.998 193.677 55.998 181.625V158.854H87.8086V171.978C87.8086 174.701 87.9535 177.337 88.2432 179.887C88.5908 182.436 89.3441 184.522 90.5029 186.145C91.6618 187.767 93.487 188.578 95.9785 188.578C99.2812 188.578 101.454 187.477 102.497 185.275C103.54 183.016 104.062 180.147 104.062 176.671V146.599C104.062 144.107 103.888 141.645 103.54 139.211C103.25 136.777 102.555 134.749 101.454 133.127C100.353 131.505 98.5859 130.693 96.1523 130.693C90.3581 130.693 87.4609 134.894 87.4609 143.296H59.3877V61.9443H132.309V90.626H88.417V112.181C89.9235 110.326 91.9515 108.704 94.501 107.313C97.1084 105.865 100.15 105.141 103.627 105.141C110.58 105.141 116.229 106.473 120.575 109.139C124.979 111.804 128.34 115.512 130.657 120.264C133.033 125.015 134.655 130.52 135.524 136.777C136.451 143.035 136.915 149.757 136.915 156.941C136.915 166.154 136.423 174.469 135.438 181.886C134.51 189.244 132.627 195.56 129.788 200.833C127.007 206.106 122.893 210.162 117.446 213.001C112.058 215.782 104.902 217.173 95.9785 217.173ZM183.936 217.173C172.173 217.173 162.555 214.276 155.08 208.481C147.663 202.629 143.955 193.677 143.955 181.625V158.854H175.766V171.978C175.766 174.701 175.91 177.337 176.2 179.887C176.548 182.436 177.301 184.522 178.46 186.145C179.619 187.767 181.444 188.578 183.936 188.578C187.238 188.578 189.411 187.477 190.454 185.275C191.497 183.016 192.019 180.147 192.019 176.671V146.599C192.019 144.107 191.845 141.645 191.497 139.211C191.207 136.777 190.512 134.749 189.411 133.127C188.31 131.505 186.543 130.693 184.109 130.693C178.315 130.693 175.418 134.894 175.418 143.296H147.345V61.9443H220.266V90.626H176.374V112.181C177.881 110.326 179.909 108.704 182.458 107.313C185.065 105.865 188.107 105.141 191.584 105.141C198.537 105.141 204.187 106.473 208.532 109.139C212.936 111.804 216.297 115.512 218.614 120.264C220.99 125.015 222.612 130.52 223.481 136.777C224.409 143.035 224.872 149.757 224.872 156.941C224.872 166.154 224.38 174.469 223.395 181.886C222.467 189.244 220.584 195.56 217.745 200.833C214.964 206.106 210.85 210.162 205.403 213.001C200.015 215.782 192.859 217.173 183.936 217.173Z"
        fill="black" />
</svg>